<?xml version="1.0" encoding="UTF-8" standalone="no"?>
<!-- Created with Inkscape (http://www.inkscape.org/) -->

<svg
   xmlns:osb="http://www.openswatchbook.org/uri/2009/osb"
   xmlns:dc="http://purl.org/dc/elements/1.1/"
   xmlns:cc="http://creativecommons.org/ns#"
   xmlns:rdf="http://www.w3.org/1999/02/22-rdf-syntax-ns#"
   xmlns:svg="http://www.w3.org/2000/svg"
   xmlns="http://www.w3.org/2000/svg"
   xmlns:sodipodi="http://sodipodi.sourceforge.net/DTD/sodipodi-0.dtd"
   xmlns:inkscape="http://www.inkscape.org/namespaces/inkscape"
   width="16px"
   height="16px"
   id="svg2985"
   version="1.1"
   inkscape:version="0.48.2 r9819"
   sodipodi:docname="share-stock-symbolic.svg">
  <sodipodi:namedview
     id="base"
     pagecolor="#ffffff"
     bordercolor="#666666"
     borderopacity="1.0"
     inkscape:pageopacity="0.0"
     inkscape:pageshadow="2"
     inkscape:zoom="17.271723"
     inkscape:cx="8.2991631"
     inkscape:cy="8.2849922"
     inkscape:current-layer="layer1"
     showgrid="true"
     inkscape:grid-bbox="true"
     inkscape:document-units="px"
     inkscape:window-width="920"
     inkscape:window-height="564"
     inkscape:window-x="229"
     inkscape:window-y="109"
     inkscape:window-maximized="0" />
  <defs
     id="defs2987">
    <marker
       style="overflow:visible"
       id="Club"
       refX="0.0"
       refY="0.0"
       orient="auto"
       inkscape:stockid="Club">
      <path
         transform="scale(0.6)"
         style="fill-rule:evenodd;stroke:#000000;stroke-width:0.74587913pt;marker-start:none"
         d="M -1.5971367,-7.0977635 C -3.4863874,-7.0977635 -5.0235187,-5.5606321 -5.0235187,-3.6713813 C -5.0235187,-3.0147015 -4.7851656,-2.4444556 -4.4641095,-1.9232271 C -4.5028609,-1.8911157 -4.5437814,-1.8647646 -4.5806531,-1.8299921 C -5.2030765,-2.6849849 -6.1700514,-3.2751330 -7.3077730,-3.2751330 C -9.1970245,-3.2751331 -10.734155,-1.7380016 -10.734155,0.15124914 C -10.734155,2.0404999 -9.1970245,3.5776313 -7.3077730,3.5776313 C -6.3143268,3.5776313 -5.4391540,3.1355702 -4.8137404,2.4588126 C -4.9384274,2.8137041 -5.0235187,3.1803000 -5.0235187,3.5776313 C -5.0235187,5.4668819 -3.4863874,7.0040135 -1.5971367,7.0040135 C 0.29211394,7.0040135 1.8292454,5.4668819 1.8292454,3.5776313 C 1.8292454,2.7842354 1.5136868,2.0838028 1.0600576,1.5031550 C 2.4152718,1.7663868 3.7718375,2.2973711 4.7661444,3.8340272 C 4.0279463,3.0958289 3.5540908,1.7534117 3.5540908,-0.058529361 L 2.9247554,-0.10514681 L 3.5074733,-0.12845553 C 3.5074733,-1.9403966 3.9580199,-3.2828138 4.6962183,-4.0210121 C 3.7371277,-2.5387813 2.4390549,-1.9946496 1.1299838,-1.7134486 C 1.5341802,-2.2753578 1.8292454,-2.9268556 1.8292454,-3.6713813 C 1.8292454,-5.5606319 0.29211394,-7.0977635 -1.5971367,-7.0977635 z "
         id="path4670" />
    </marker>
    <marker
       style="overflow:visible"
       id="EmptyDiamondS"
       refX="0.0"
       refY="0.0"
       orient="auto"
       inkscape:stockid="EmptyDiamondS">
      <path
         transform="scale(0.2)"
         style="fill-rule:evenodd;fill:#FFFFFF;stroke:#000000;stroke-width:1.0pt;marker-start:none"
         d="M 0,-7.0710768 L -7.0710894,0 L 0,7.0710589 L 7.0710462,0 L 0,-7.0710768 z "
         id="path4553" />
    </marker>
    <marker
       style="overflow:visible"
       id="DiamondSstart"
       refX="0.0"
       refY="0.0"
       orient="auto"
       inkscape:stockid="DiamondSstart">
      <path
         transform="scale(0.2) translate(6,0)"
         style="fill-rule:evenodd;stroke:#000000;stroke-width:1.0pt;marker-start:none"
         d="M 0,-7.0710768 L -7.0710894,0 L 0,7.0710589 L 7.0710462,0 L 0,-7.0710768 z "
         id="path4535" />
    </marker>
    <linearGradient
       osb:paint="solid"
       id="linearGradient8725">
      <stop
         id="stop8727"
         offset="0"
         style="stop-color:#000000;stop-opacity:1;" />
    </linearGradient>
    <marker
       inkscape:stockid="TriangleInS"
       orient="auto"
       refY="0.0"
       refX="0.0"
       id="TriangleInS"
       style="overflow:visible">
      <path
         id="path3908"
         d="M 5.77,0.0 L -2.88,5.0 L -2.88,-5.0 L 5.77,0.0 z "
         style="fill-rule:evenodd;stroke:#000000;stroke-width:1.0pt;marker-start:none"
         transform="scale(-0.2)" />
    </marker>
    <marker
       inkscape:stockid="TriangleOutS"
       orient="auto"
       refY="0.0"
       refX="0.0"
       id="TriangleOutS"
       style="overflow:visible">
      <path
         id="path3917"
         d="M 5.77,0.0 L -2.88,5.0 L -2.88,-5.0 L 5.77,0.0 z "
         style="fill-rule:evenodd;stroke:#000000;stroke-width:1.0pt;marker-start:none"
         transform="scale(0.2)" />
    </marker>
    <marker
       inkscape:stockid="Arrow1Send"
       orient="auto"
       refY="0.0"
       refX="0.0"
       id="Arrow1Send"
       style="overflow:visible;">
      <path
         id="path3783"
         d="M 0.0,0.0 L 5.0,-5.0 L -12.5,0.0 L 5.0,5.0 L 0.0,0.0 z "
         style="fill-rule:evenodd;stroke:#000000;stroke-width:1.0pt;marker-start:none;"
         transform="scale(0.2) rotate(180) translate(6,0)" />
    </marker>
    <marker
       inkscape:stockid="Arrow2Sstart"
       orient="auto"
       refY="0.0"
       refX="0.0"
       id="Arrow2Sstart"
       style="overflow:visible">
      <path
         id="path3798"
         style="font-size:12.0;fill-rule:evenodd;stroke-width:0.62500000;stroke-linejoin:round"
         d="M 8.7185878,4.0337352 L -2.2072895,0.016013256 L 8.7185884,-4.0017078 C 6.9730900,-1.6296469 6.9831476,1.6157441 8.7185878,4.0337352 z "
         transform="scale(0.3) translate(-2.3,0)" />
    </marker>
    <marker
       inkscape:stockid="Arrow1Sstart"
       orient="auto"
       refY="0.0"
       refX="0.0"
       id="Arrow1Sstart"
       style="overflow:visible">
      <path
         id="path3780"
         d="M 0.0,0.0 L 5.0,-5.0 L -12.5,0.0 L 5.0,5.0 L 0.0,0.0 z "
         style="fill-rule:evenodd;stroke:#000000;stroke-width:1.0pt;marker-start:none"
         transform="scale(0.2) translate(6,0)" />
    </marker>
    <marker
       inkscape:stockid="Arrow1Mstart"
       orient="auto"
       refY="0.0"
       refX="0.0"
       id="Arrow1Mstart"
       style="overflow:visible">
      <path
         id="path3774"
         d="M 0.0,0.0 L 5.0,-5.0 L -12.5,0.0 L 5.0,5.0 L 0.0,0.0 z "
         style="fill-rule:evenodd;stroke:#000000;stroke-width:1.0pt;marker-start:none"
         transform="scale(0.4) translate(10,0)" />
    </marker>
    <marker
       inkscape:stockid="Arrow2Mstart"
       orient="auto"
       refY="0.0"
       refX="0.0"
       id="Arrow2Mstart"
       style="overflow:visible">
      <path
         id="path3792"
         style="font-size:12.0;fill-rule:evenodd;stroke-width:0.62500000;stroke-linejoin:round"
         d="M 8.7185878,4.0337352 L -2.2072895,0.016013256 L 8.7185884,-4.0017078 C 6.9730900,-1.6296469 6.9831476,1.6157441 8.7185878,4.0337352 z "
         transform="scale(0.6) translate(0,0)" />
    </marker>
    <marker
       inkscape:stockid="EmptyTriangleInL"
       orient="auto"
       refY="0.0"
       refX="0.0"
       id="EmptyTriangleInL"
       style="overflow:visible">
      <path
         id="path3920"
         d="M 5.77,0.0 L -2.88,5.0 L -2.88,-5.0 L 5.77,0.0 z "
         style="fill-rule:evenodd;fill:#FFFFFF;stroke:#000000;stroke-width:1.0pt;marker-start:none"
         transform="scale(-0.8) translate(-6,0)" />
    </marker>
    <marker
       inkscape:stockid="Arrow2Lstart"
       orient="auto"
       refY="0.0"
       refX="0.0"
       id="Arrow2Lstart"
       style="overflow:visible">
      <path
         id="path3786"
         style="font-size:12.0;fill-rule:evenodd;stroke-width:0.62500000;stroke-linejoin:round"
         d="M 8.7185878,4.0337352 L -2.2072895,0.016013256 L 8.7185884,-4.0017078 C 6.9730900,-1.6296469 6.9831476,1.6157441 8.7185878,4.0337352 z "
         transform="scale(1.1) translate(1,0)" />
    </marker>
    <marker
       inkscape:stockid="TriangleInL"
       orient="auto"
       refY="0.0"
       refX="0.0"
       id="TriangleInL"
       style="overflow:visible">
      <path
         id="path3902"
         d="M 5.77,0.0 L -2.88,5.0 L -2.88,-5.0 L 5.77,0.0 z "
         style="fill-rule:evenodd;stroke:#000000;stroke-width:1.0pt;marker-start:none"
         transform="scale(-0.8)" />
    </marker>
    <marker
       inkscape:stockid="TriangleInS"
       orient="auto"
       refY="0"
       refX="0"
       id="TriangleInS-0"
       style="overflow:visible">
      <path
         inkscape:connector-curvature="0"
         id="path3908-7"
         d="m 5.77,0 -8.65,5 0,-10 8.65,5 z"
         style="fill-rule:evenodd;stroke:#000000;stroke-width:1pt;marker-start:none"
         transform="scale(-0.2,-0.2)" />
    </marker>
    <marker
       inkscape:stockid="TriangleInS-02"
       orient="auto"
       refY="0"
       refX="0"
       id="TriangleInS-02"
       style="overflow:visible">
      <path
         inkscape:connector-curvature="0"
         id="path8194"
         d="m 5.77,0 -8.65,5 0,-10 8.65,5 z"
         style="marker-start:none;stroke:#ffffff;stroke-width:1pt;fill:#ffffff;fill-rule:evenodd"
         transform="scale(-0.2,-0.2)" />
    </marker>
    <marker
       inkscape:stockid="TriangleInSX"
       orient="auto"
       refY="0.0"
       refX="0.0"
       id="TriangleInSX"
       style="overflow:visible">
      <path
         id="path8260"
         d="M 5.77,0.0 L -2.88,5.0 L -2.88,-5.0 L 5.77,0.0 z "
         style="marker-start:none;stroke:#ffffff;stroke-width:1.0pt;fill:#ffffff;fill-rule:evenodd"
         transform="scale(-0.2)" />
    </marker>
    <marker
       inkscape:stockid="TriangleInS-02y"
       orient="auto"
       refY="0"
       refX="0"
       id="TriangleInS-02y"
       style="overflow:visible">
      <path
         inkscape:connector-curvature="0"
         id="path8395"
         d="m 5.77,0 -8.65,5 0,-10 8.65,5 z"
         style="fill-rule:evenodd;marker-start:none;stroke:#000000;stroke-width:1pt;fill:#000000"
         transform="scale(-0.2,-0.2)" />
    </marker>
    <marker
       inkscape:stockid="TriangleInSX2"
       orient="auto"
       refY="0.0"
       refX="0.0"
       id="TriangleInSX2"
       style="overflow:visible">
      <path
         id="path8468"
         d="M 5.77,0.0 L -2.88,5.0 L -2.88,-5.0 L 5.77,0.0 z "
         style="fill-rule:evenodd;marker-start:none;stroke:#000000;stroke-width:1.0pt;fill:#000000"
         transform="scale(-0.2)" />
    </marker>
    <marker
       inkscape:stockid="TriangleInSX2f"
       orient="auto"
       refY="0.0"
       refX="0.0"
       id="TriangleInSX2f"
       style="overflow:visible">
      <path
         id="path8545"
         d="M 5.77,0.0 L -2.88,5.0 L -2.88,-5.0 L 5.77,0.0 z "
         style="marker-start:none;stroke:#ececec;stroke-width:1.0pt;fill:#ececec;fill-rule:evenodd"
         transform="scale(-0.2)" />
    </marker>
    <marker
       inkscape:stockid="TriangleInS-02yE"
       orient="auto"
       refY="0"
       refX="0"
       id="TriangleInS-02yE"
       style="overflow:visible">
      <path
         inkscape:connector-curvature="0"
         id="path8548"
         d="m 5.77,0 -8.65,5 0,-10 8.65,5 z"
         style="marker-start:none;stroke:#ececec;stroke-width:1pt;fill:#ececec;fill-rule:evenodd"
         transform="scale(-0.2,-0.2)" />
    </marker>
    <marker
       inkscape:stockid="TriangleInSX2fn"
       orient="auto"
       refY="0.0"
       refX="0.0"
       id="TriangleInSX2fn"
       style="overflow:visible">
      <path
         id="path8633"
         d="M 5.77,0.0 L -2.88,5.0 L -2.88,-5.0 L 5.77,0.0 z "
         style="fill-rule:evenodd;marker-start:none;stroke:#bebebe;stroke-width:1.0pt;fill:#bebebe"
         transform="scale(-0.2)" />
    </marker>
    <marker
       inkscape:stockid="TriangleInS-02yEe"
       orient="auto"
       refY="0"
       refX="0"
       id="TriangleInS-02yEe"
       style="overflow:visible">
      <path
         inkscape:connector-curvature="0"
         id="path8636"
         d="m 5.77,0 -8.65,5 0,-10 8.65,5 z"
         style="fill-rule:evenodd;marker-start:none;stroke:#bebebe;stroke-width:1pt;fill:#bebebe"
         transform="scale(-0.2,-0.2)" />
    </marker>
    <marker
       inkscape:stockid="TriangleInSX2O"
       orient="auto"
       refY="0.0"
       refX="0.0"
       id="TriangleInSX2O"
       style="overflow:visible">
      <path
         id="path5899"
         d="M 5.77,0.0 L -2.88,5.0 L -2.88,-5.0 L 5.77,0.0 z "
         style="marker-start:none;stroke:#bebebe;stroke-width:1.0pt;fill:#bebebe;fill-rule:evenodd"
         transform="scale(-0.2)" />
    </marker>
  </defs>
  <metadata
     id="metadata2990">
    <rdf:RDF>
      <cc:Work
         rdf:about="">
        <dc:format>image/svg+xml</dc:format>
        <dc:type
           rdf:resource="http://purl.org/dc/dcmitype/StillImage" />
        <dc:title />
      </cc:Work>
    </rdf:RDF>
  </metadata>
  <g
     id="layer1"
     inkscape:label="Layer 1"
     inkscape:groupmode="layer">
    <path
       style="fill:none;stroke:#bebebe;stroke-width:1.86308467;stroke-linecap:butt;stroke-linejoin:miter;stroke-miterlimit:4;stroke-opacity:1;stroke-dasharray:none;marker-start:url(#TriangleInSX2fn);marker-mid:none;marker-end:none"
       d="m 2.1980441,3.1022948 -0.076027,11.5850592 0,0"
       id="path2995"
       inkscape:connector-curvature="0" />
    <path
       style="fill:none;stroke:#bebebe;stroke-width:1.86146486;stroke-linecap:butt;stroke-linejoin:bevel;stroke-miterlimit:0;stroke-opacity:1;stroke-dasharray:none;marker-start:url(#TriangleInSX2O);marker-mid:none;marker-end:none"
       d="m 12.714197,13.778905 -11.5159054,0.0063 0,0"
       id="path2995-7"
       inkscape:connector-curvature="0" />
    <path
       style="fill:none;stroke:#bebebe;stroke-width:2.0063746;stroke-linecap:butt;stroke-linejoin:miter;stroke-miterlimit:4;stroke-opacity:1;stroke-dasharray:none"
       d="m 3.3138998,35.14493 3.9387994,-6.282116 3.0559678,4.188079 5.161184,-6.282118 -0.135822,0.09972"
       id="path6947"
       inkscape:connector-curvature="0" />
    <path
       style="fill:none;stroke:#bebebe;stroke-width:1.69999999999999996;stroke-linecap:butt;stroke-linejoin:miter;stroke-opacity:1;stroke-miterlimit:4;stroke-dasharray:none"
       d="M 2.1422298,11.42605 6.4845876,6.0994244 9.1479003,9.28382 13.374462,5.2888509 l 0,0 0,0"
       id="path5962"
       inkscape:connector-curvature="0" />
  </g>
</svg>
